<svg width="48" height="24" viewBox="0 0 48 24" fill="none" xmlns="http://www.w3.org/2000/svg">
<rect width="48" height="24" rx="2" fill="#FBFAF8"/>
<g clip-path="url(#clip0_2_239)">
<path fill-rule="evenodd" clip-rule="evenodd" d="M9.77667 11.3251C8.8619 11.3251 7.80143 11.7455 7.22667 12.1814L7.75286 13.2401C8.21429 12.8353 8.95905 12.4928 9.63095 12.4928C10.2705 12.4928 10.6186 12.6952 10.6186 13.1078C10.6186 13.388 10.3838 13.5281 9.94667 13.5826C8.29524 13.785 7 14.221 7 15.4431C7 16.4084 7.72048 17 8.83762 17C9.63905 17 10.3514 16.5719 10.6914 16.0114V16.8443H12.181V13.3491C12.181 11.909 11.1367 11.3251 9.77667 11.3251ZM9.2181 15.879C8.79714 15.879 8.58667 15.6844 8.58667 15.3575C8.58667 14.7503 9.29095 14.5479 10.5781 14.4156C10.5862 15.2251 10.0114 15.879 9.2181 15.879Z" fill="black"/>
<path fill-rule="evenodd" clip-rule="evenodd" d="M26.2262 12.3838V11.4808H24.7366V16.8443H26.3314V14.2599C26.3314 13.0299 27.1004 12.6719 27.6428 12.6719C27.8533 12.6719 28.1366 12.7341 28.3228 12.8665L28.6143 11.4497C28.3714 11.3485 28.1123 11.3251 27.9019 11.3251C27.0843 11.3251 26.5662 11.6754 26.2262 12.3838Z" fill="black"/>
<path fill-rule="evenodd" clip-rule="evenodd" d="M36.0133 11.3251C35.1714 11.3251 34.54 11.8078 34.2081 12.2671C33.9005 11.6677 33.261 11.3251 32.4838 11.3251C31.6419 11.3251 31.0591 11.7766 30.7838 12.2904V11.4808H29.2457V16.8443H30.8405V14.0808C30.8405 13.0922 31.3829 12.6174 31.8848 12.6174C32.3381 12.6174 32.7591 12.8976 32.7591 13.6293V16.8443H34.3619V14.0808C34.3619 13.0766 34.8881 12.6174 35.4143 12.6174C35.8353 12.6174 36.2805 12.9132 36.2805 13.6216V16.8443H37.8753V13.1389C37.8753 11.9323 37.0333 11.3251 36.0133 11.3251Z" fill="black"/>
<path fill-rule="evenodd" clip-rule="evenodd" d="M17.8152 11.0838V11.4808H15.3948V10.9359C15.3948 10.2275 15.8157 10.0252 16.18 10.0252C16.3905 10.0252 16.6657 10.0719 16.8924 10.1964L17.3862 9.11438C17.0948 8.9509 16.6171 8.803 15.9776 8.803C14.9576 8.803 13.8 9.35569 13.8 11.0916V11.4886H12.8771V12.6719H13.8V16.8443H15.3948V12.6641H17.8152V16.8443H19.41V12.6641H20.859V11.4808H19.41V10.9359C19.41 10.2275 19.8309 10.0252 20.1952 10.0252C20.6 10.0252 20.9076 10.1964 20.9076 10.1964L21.4014 9.11438C21.4014 9.11438 20.8995 8.803 19.9929 8.803C18.9809 8.79521 17.8152 9.34791 17.8152 11.0838Z" fill="black"/>
<path fill-rule="evenodd" clip-rule="evenodd" d="M21.8062 11.4808H23.401V16.8443H21.8062V11.4808Z" fill="black"/>
<path fill-rule="evenodd" clip-rule="evenodd" d="M31.0995 4C26.7929 4 22.9557 6.87246 21.871 10.5701H23.4334C24.34 7.81437 27.4243 5.4012 31.0995 5.4012C35.5681 5.4012 39.4214 8.67066 39.4214 13.7617C39.4214 14.906 39.2676 15.9335 38.9762 16.8443H40.49L40.5062 16.7976C40.7572 15.8557 40.8786 14.8359 40.8786 13.7617C40.8786 8.08683 36.58 4 31.0995 4Z" fill="#4A4AF4"/>
</g>
<defs>
<clipPath id="clip0_2_239">
<rect width="34" height="13" fill="white" transform="translate(7 4)"/>
</clipPath>
</defs>
</svg>
