<svg width="48" height="24" viewBox="0 0 48 24" fill="none" xmlns="http://www.w3.org/2000/svg">
<rect width="48" height="24" rx="2" fill="#00A8E1"/>
<g clip-path="url(#clip0_2_39)">
<path d="M34.5008 16.8352C31.6538 18.9024 27.5263 20 23.974 20C19.2271 20.025 14.6413 18.3056 11.1138 15.1776C10.8473 14.9408 11.0845 14.6176 11.4063 14.8C15.3251 17.0032 19.7604 18.1603 24.273 18.1568C27.6404 18.1392 30.9713 17.4682 34.075 16.1824C34.569 15.9808 34.972 16.48 34.5008 16.8352Z" fill="white"/>
<path d="M35.7 15.52C35.336 15.0624 33.295 15.3024 32.3753 15.4112C32.0958 15.4432 32.0503 15.2064 32.3038 15.0336C33.9288 13.9072 36.6035 14.2336 36.9123 14.6112C37.221 14.9888 36.831 17.6224 35.2873 18.88C35.0533 19.072 34.829 18.9696 34.933 18.7136C35.2808 17.8528 36.051 15.9648 35.7 15.52Z" fill="white"/>
<path d="M17.3505 11.3216C17.2341 11.343 17.122 11.2675 17.1002 11.1526C17.0954 11.127 17.0954 11.1008 17.1002 11.0752V6.55999C17.0921 6.49087 17.1132 6.42143 17.1587 6.36799C17.2127 6.32767 17.2796 6.30847 17.3472 6.31359H18.0655C18.202 6.30015 18.3248 6.39455 18.345 6.52799L18.475 7.05279C18.6885 6.80671 18.9436 6.59871 19.229 6.43839C19.4617 6.31839 19.7204 6.25599 19.983 6.25599H20.1227C20.1933 6.24991 20.2638 6.26911 20.321 6.31039C20.3665 6.36383 20.3876 6.43327 20.3795 6.50239V7.32798C20.385 7.39454 20.3655 7.46046 20.3242 7.51358C20.27 7.55838 20.1994 7.57919 20.1292 7.57118H19.9505C19.8767 7.57118 19.7838 7.57118 19.671 7.57118C19.4831 7.57502 19.2959 7.59646 19.112 7.63518C18.9202 7.67006 18.733 7.72478 18.553 7.79839V11.0784C18.5582 11.1449 18.5387 11.2109 18.4977 11.264C18.4435 11.3088 18.3729 11.3296 18.3027 11.3216H17.3505Z" fill="white"/>
<path d="M11.3738 13.344C11.3039 13.3472 11.2353 13.3245 11.182 13.28C11.1365 13.2266 11.1154 13.1571 11.1235 13.088V6.55999C11.1154 6.49087 11.1365 6.42143 11.182 6.36799C11.236 6.32767 11.3029 6.30847 11.3705 6.31359H12.092C12.2285 6.30015 12.3514 6.39455 12.3715 6.52799L12.443 6.78399C12.6507 6.58655 12.8961 6.43103 13.1645 6.32639C13.4391 6.21695 13.7326 6.16031 14.029 6.15999C14.6199 6.14079 15.1847 6.39967 15.55 6.85759C15.9524 7.40351 16.1522 8.06879 16.1155 8.74239C16.1266 9.23135 16.0313 9.71679 15.836 10.1664C15.6748 10.5408 15.4129 10.865 15.0788 11.104C14.7557 11.321 14.3712 11.433 13.9803 11.424C13.7147 11.4253 13.4508 11.3821 13.2003 11.296C12.9698 11.2198 12.757 11.1002 12.573 10.944V13.0944C12.5802 13.1629 12.5607 13.2317 12.5178 13.2864C12.4622 13.3286 12.3923 13.3478 12.3228 13.3408L11.3738 13.344ZM13.561 10.3488C13.8821 10.3715 14.1928 10.2301 14.3833 9.97439C14.5857 9.61663 14.6774 9.20831 14.6465 8.79999C14.6777 8.38783 14.5874 7.97567 14.3865 7.61279C14.1954 7.35455 13.8815 7.21279 13.5578 7.23839C13.2142 7.23871 12.8775 7.33023 12.5828 7.50399V10.08C12.8753 10.2592 13.2133 10.3533 13.5578 10.352L13.561 10.3488Z" fill="white"/>
<path d="M24.0325 11.3216C23.9162 11.343 23.804 11.2675 23.7823 11.1526C23.7774 11.127 23.7774 11.1008 23.7823 11.0752V6.55999C23.7741 6.49087 23.7953 6.42143 23.8408 6.36799C23.8947 6.32767 23.9617 6.30847 24.0293 6.31359H24.7475C24.884 6.30015 25.0069 6.39455 25.027 6.52799L25.1083 6.79359C25.404 6.59295 25.7238 6.42975 26.0605 6.30719C26.3384 6.21183 26.6306 6.16223 26.925 6.15999C27.4372 6.11679 27.9293 6.36543 28.1925 6.79999C28.4892 6.59903 28.8116 6.43775 29.1512 6.31999C29.4509 6.22175 29.7649 6.17215 30.0807 6.17279C30.4798 6.14911 30.8712 6.28799 31.163 6.55679C31.4321 6.84735 31.5706 7.23295 31.5465 7.62559V11.0784C31.5517 11.145 31.5322 11.2109 31.4913 11.264C31.437 11.3088 31.3665 11.3296 31.2963 11.3216H30.3505C30.2342 11.343 30.122 11.2675 30.1003 11.1526C30.0954 11.127 30.0954 11.1008 30.1003 11.0752V7.92639C30.1003 7.48063 29.8978 7.25759 29.4925 7.25759C29.1149 7.26175 28.7427 7.34943 28.4037 7.51359V11.0784C28.4093 11.145 28.3898 11.2109 28.3485 11.264C28.2942 11.3088 28.2237 11.3296 28.1535 11.3216H27.198C27.0817 11.343 26.9695 11.2675 26.9478 11.1526C26.9429 11.127 26.9429 11.1008 26.9478 11.0752V7.92639C26.9478 7.48063 26.7453 7.25759 26.34 7.25759C25.9578 7.25983 25.5815 7.35103 25.2415 7.52319V11.0752C25.2467 11.1418 25.2272 11.2077 25.1863 11.2608C25.132 11.3056 25.0615 11.3264 24.9913 11.3184L24.0325 11.3216Z" fill="white"/>
<path d="M35.024 11.4688C34.3236 11.5139 33.6356 11.272 33.1228 10.8C32.6538 10.2714 32.4195 9.57985 32.4728 8.88001C32.426 8.15457 32.6632 7.43873 33.1358 6.88001C33.6281 6.37953 34.3175 6.11425 35.024 6.15361C35.5466 6.12289 36.0627 6.28001 36.4768 6.59521C36.8271 6.88961 37.0202 7.32641 37 7.77921C37.0237 8.22241 36.8089 8.64545 36.4345 8.89281C35.9304 9.17633 35.3529 9.30753 34.7738 9.27041C34.4455 9.27425 34.1179 9.23777 33.7988 9.16161C33.8007 9.51553 33.9457 9.85409 34.2018 10.1024C34.505 10.3143 34.8742 10.4151 35.245 10.3872C35.4264 10.3872 35.6077 10.3754 35.7878 10.352C36.0354 10.3143 36.2805 10.2627 36.5223 10.1984H36.5808H36.6295C36.7423 10.1984 36.7985 10.2743 36.7985 10.4256V10.8768C36.8047 10.9533 36.7891 11.0298 36.753 11.0976C36.7069 11.1511 36.6458 11.1898 36.5775 11.2096C36.0803 11.3898 35.5538 11.4778 35.024 11.4688ZM34.699 8.38721C34.9548 8.40545 35.2106 8.35233 35.4368 8.23361C35.5921 8.12897 35.6799 7.95137 35.6675 7.76641C35.6675 7.35457 35.4182 7.14881 34.92 7.14881C34.2807 7.14881 33.9115 7.53505 33.8118 8.30721C34.102 8.36193 34.3971 8.38881 34.6925 8.38721H34.699Z" fill="white"/>
<path d="M21.8193 5.5328C21.5976 5.54368 21.3802 5.4704 21.2115 5.328C21.0549 5.18368 20.9707 4.97888 20.9808 4.768C20.9697 4.55584 21.0539 4.34976 21.2115 4.2048C21.5677 3.92416 22.0741 3.92416 22.4303 4.2048C22.5869 4.34912 22.6711 4.55392 22.661 4.7648C22.6711 4.97568 22.5869 5.18048 22.4303 5.3248C22.2613 5.46912 22.0425 5.54368 21.8193 5.5328ZM21.3415 11.3248C21.2252 11.3462 21.113 11.2707 21.0913 11.1558C21.0864 11.1302 21.0864 11.104 21.0913 11.0784V6.56C21.0831 6.49088 21.1043 6.42144 21.1498 6.368C21.2037 6.32768 21.2707 6.30848 21.3383 6.3136H22.297C22.3666 6.30656 22.4364 6.32576 22.492 6.368C22.5349 6.42272 22.5544 6.49152 22.5473 6.56V11.0784C22.5528 11.145 22.5333 11.2109 22.492 11.264C22.4377 11.3088 22.3672 11.3296 22.297 11.3216L21.3415 11.3248Z" fill="white"/>
</g>
<defs>
<clipPath id="clip0_2_39">
<rect width="26" height="16" fill="white" transform="translate(11 4)"/>
</clipPath>
</defs>
</svg>
