<svg width="48" height="24" viewBox="0 0 48 24" fill="none" xmlns="http://www.w3.org/2000/svg">
<rect width="48" height="24" rx="2" fill="#FBFAF8"/>
<path fill-rule="evenodd" clip-rule="evenodd" d="M36 12.25C36 16.8217 31.5586 20.521 27 20.5H21C16.0537 20.521 12 16.8229 12 12.25C12 7.40086 16.0537 3.99825 21 4H27C31.5586 3.99825 36 7.39969 36 12.25ZM13 12.25C13.0012 8.19985 16.5814 4.91781 21 4.91667C25.4186 4.91781 28.9994 8.19985 29 12.25C28.9994 16.3002 25.4186 19.5822 21 19.5833C16.5814 19.5822 13.0012 16.3002 13 12.25ZM23 17.437C25.3304 16.682 27 14.6447 27 12.25C27 9.85527 25.3304 7.818 23 7.06296V17.437ZM19 17.437C16.6696 16.682 15 14.6447 15 12.25C15 9.85527 16.6696 7.818 19 7.06296V17.437Z" fill="#184977"/>
</svg>
