<svg width="48" height="24" viewBox="0 0 48 24" fill="none" xmlns="http://www.w3.org/2000/svg">
<rect width="48" height="24" rx="2" fill="#019DDE"/>
<path fill-rule="evenodd" clip-rule="evenodd" d="M20.5455 20.3899L20.8726 18.4085L20.1438 18.3923H16.6638L19.0823 3.77079C19.0898 3.72652 19.1142 3.68542 19.1498 3.65618C19.1855 3.62694 19.2311 3.6109 19.2787 3.6109H25.1466C27.0948 3.6109 28.4391 3.99735 29.1409 4.76023C29.47 5.11811 29.6796 5.4922 29.781 5.90371C29.8874 6.33561 29.8892 6.85155 29.7854 7.48093L29.7779 7.52671V7.93004L30.107 8.10781C30.384 8.24799 30.6043 8.40838 30.7732 8.592C31.0546 8.89809 31.2367 9.28705 31.3136 9.74802C31.3931 10.2222 31.3668 10.7866 31.2367 11.4255C31.0865 12.1603 30.8438 12.8004 30.5159 13.324C30.2145 13.8065 29.8304 14.2068 29.3743 14.5169C28.9389 14.8117 28.4216 15.0354 27.8367 15.1786C27.2698 15.3192 26.6236 15.3902 25.9148 15.3902H25.4582C25.1317 15.3902 24.8145 15.5024 24.5655 15.7033C24.3158 15.9085 24.1508 16.1889 24.1001 16.4955L24.0656 16.6739L23.4875 20.1663L23.4614 20.2945C23.4544 20.3351 23.4425 20.3553 23.425 20.369C23.4094 20.3815 23.387 20.3899 23.3651 20.3899H20.5455Z" fill="#28356A"/>
<path fill-rule="evenodd" clip-rule="evenodd" d="M30.4183 7.57333C30.4009 7.6801 30.3808 7.7892 30.3584 7.90131C29.5846 11.6896 26.937 12.9984 23.5558 12.9984H21.8342C21.4207 12.9984 21.0722 13.2846 21.0078 13.6735L19.8768 20.5145C19.8349 20.77 20.0413 21.0001 20.3115 21.0001H23.365C23.7265 21.0001 24.0337 20.7496 24.0906 20.4096L24.1206 20.2618L24.6955 16.783L24.7325 16.5922C24.7887 16.251 25.0966 16.0004 25.4581 16.0004H25.9148C28.8731 16.0004 31.1891 14.8553 31.866 11.5411C32.1487 10.1567 32.0024 9.00068 31.2541 8.18768C31.0277 7.94258 30.7468 7.73908 30.4183 7.57333Z" fill="white"/>
<path fill-rule="evenodd" clip-rule="evenodd" d="M29.6089 7.26552C29.4906 7.23261 29.3686 7.20287 29.2435 7.17597C29.1177 7.14974 28.9889 7.12651 28.8563 7.10613C28.3921 7.03462 27.8834 7.0007 27.3386 7.0007H22.7394C22.626 7.0007 22.5185 7.0251 22.4223 7.0692C22.2101 7.16644 22.0525 7.35792 22.0143 7.59233L21.0358 13.5012L21.0078 13.6735C21.0721 13.2845 21.4206 12.9983 21.8342 12.9983H23.5558C26.937 12.9983 29.5845 11.6889 30.3583 7.90125C30.3815 7.78914 30.4009 7.68004 30.4183 7.57328C30.2225 7.4742 30.0105 7.38949 29.7822 7.31732C29.7258 7.29944 29.6676 7.28223 29.6089 7.26552Z" fill="#2450A5"/>
<path fill-rule="evenodd" clip-rule="evenodd" d="M22.0143 7.59237C22.0525 7.35796 22.21 7.16649 22.4222 7.06992C22.5191 7.02564 22.626 7.00125 22.7394 7.00125H27.3386C27.8834 7.00125 28.3921 7.03533 28.8562 7.10684C28.9889 7.12706 29.1177 7.15045 29.2435 7.17668C29.3686 7.20341 29.4906 7.23332 29.6089 7.26607C29.6676 7.28278 29.7257 7.30015 29.7827 7.31736C30.011 7.38954 30.2232 7.47492 30.4189 7.57332C30.6492 6.17338 30.417 5.2202 29.6232 4.35707C28.748 3.40673 27.1685 3.00006 25.1472 3.00006H19.2792C18.8663 3.00006 18.5141 3.28627 18.4503 3.67589L16.0063 18.4478C15.9581 18.74 16.1944 19.0036 16.5036 19.0036H20.1262L22.0143 7.59237Z" fill="#012F86"/>
</svg>
