<svg width="48" height="24" viewBox="0 0 48 24" fill="none" xmlns="http://www.w3.org/2000/svg">
<rect width="48" height="24" rx="2" fill="#FBFAF8"/>
<g clip-path="url(#clip0_2_10)">
<path d="M14.7351 10.831C14.4304 10.2006 13.8526 9.79344 12.9819 9.79344C12.7147 9.79803 12.4521 9.8631 12.2144 9.98358C11.9767 10.1041 11.7702 10.2768 11.6109 10.4884L11.5791 10.5266V8.056C11.5791 8.04172 11.5734 8.02803 11.5632 8.01794C11.5529 8.00784 11.539 8.00217 11.5245 8.00217H10.2935C10.2792 8.00242 10.2656 8.00821 10.2555 8.01828C10.2455 8.02835 10.2399 8.04189 10.2399 8.056V15.1428C10.2399 15.1568 10.2456 15.1702 10.2556 15.1802C10.2657 15.1901 10.2793 15.1956 10.2935 15.1956H11.6119C11.6262 15.1956 11.64 15.1901 11.6502 15.1802C11.6604 15.1703 11.6663 15.1569 11.6665 15.1428V12.1211C11.6665 11.5338 12.0636 11.1178 12.699 11.1178C13.3939 11.1178 13.5697 11.6816 13.5697 12.2562V15.1428C13.5697 15.1568 13.5753 15.1702 13.5854 15.1802C13.5954 15.1901 13.609 15.1956 13.6233 15.1956H14.9387C14.953 15.1956 14.9667 15.1901 14.9769 15.1802C14.9872 15.1703 14.9931 15.1569 14.9933 15.1428V12.0839C14.9933 11.9792 14.9933 11.8764 14.9794 11.7766C14.9568 11.4494 14.874 11.129 14.7351 10.831Z" fill="#5A31F4"/>
<path d="M8.15208 11.8812C8.15208 11.8812 7.48097 11.7256 7.23377 11.663C6.98656 11.6003 6.55471 11.4672 6.55471 11.1451C6.55471 10.8231 6.90317 10.7203 7.2566 10.7203C7.61003 10.7203 8.00317 10.8045 8.03394 11.1912C8.03519 11.2051 8.04169 11.218 8.05217 11.2275C8.06265 11.2369 8.07634 11.2421 8.09053 11.2421L9.39006 11.2372C9.39771 11.2372 9.40528 11.2356 9.4123 11.2327C9.41931 11.2297 9.42562 11.2253 9.43084 11.2197C9.43606 11.2142 9.44008 11.2077 9.44262 11.2006C9.44516 11.1935 9.44621 11.1859 9.44566 11.1784C9.36525 9.94118 8.26426 9.49875 7.24865 9.49875C6.04442 9.49875 5.16384 10.2818 5.16384 11.1451C5.16384 11.7755 5.34453 12.3667 6.76517 12.7779C7.01436 12.8493 7.3529 12.9423 7.64875 13.0235C8.00416 13.1214 8.19576 13.2692 8.19576 13.5022C8.19576 13.7724 7.79866 13.9603 7.4085 13.9603C6.84361 13.9603 6.44253 13.7538 6.40977 13.3828C6.40806 13.3692 6.40136 13.3567 6.39092 13.3477C6.38049 13.3387 6.36706 13.3337 6.35318 13.3338L5.05662 13.3397C5.04902 13.3397 5.0415 13.3412 5.0345 13.3441C5.0275 13.3471 5.02117 13.3513 5.01589 13.3567C5.01061 13.3621 5.00648 13.3685 5.00376 13.3755C5.00103 13.3825 4.99977 13.39 5.00003 13.3975C5.0596 14.5652 6.20327 15.1946 7.26952 15.1946C8.85795 15.1946 9.57571 14.3137 9.57571 13.4885C9.5777 13.1009 9.48735 12.218 8.15208 11.8812Z" fill="#5A31F4"/>
<path d="M24.8703 9.7914C24.2102 9.7914 23.6571 10.1516 23.3007 10.5862V9.8423C23.3007 9.82845 23.2952 9.81515 23.2853 9.80527C23.2756 9.79539 23.2622 9.7897 23.2481 9.78946H22.0151C22.0009 9.78946 21.9872 9.79501 21.9772 9.80492C21.9671 9.81484 21.9614 9.8283 21.9614 9.8423V16.7921C21.9618 16.8059 21.9676 16.8191 21.9776 16.8288C21.9877 16.8385 22.0011 16.844 22.0151 16.844H23.3345C23.3484 16.844 23.3618 16.8385 23.3717 16.8288C23.3815 16.8191 23.3871 16.8058 23.3871 16.7921V14.5074H23.407C23.6164 14.8226 24.1892 15.2005 24.9379 15.2005C26.3455 15.2005 27.519 14.0494 27.519 12.494C27.5201 11.0013 26.3525 9.7914 24.8703 9.7914ZM24.7482 13.8761C24.4704 13.8829 24.1965 13.8079 23.9621 13.6607C23.7277 13.5135 23.543 13.3007 23.4316 13.0496C23.3203 12.7984 23.2874 12.5202 23.3372 12.2505C23.3869 11.9809 23.5171 11.7319 23.7109 11.5355C23.9048 11.3391 24.1537 11.204 24.4257 11.1477C24.6977 11.0913 24.9807 11.1161 25.2383 11.2189C25.496 11.3218 25.7167 11.498 25.8724 11.7251C26.0281 11.9522 26.1115 12.2199 26.1123 12.494C26.1151 12.6731 26.082 12.8511 26.015 13.0177C25.948 13.1842 25.8482 13.336 25.7215 13.4645C25.5948 13.5929 25.4436 13.6954 25.2764 13.766C25.1094 13.8366 24.9299 13.8741 24.7482 13.8761Z" fill="#5A31F4"/>
<path d="M18.057 9.48608C16.8269 9.48608 16.2134 9.89817 15.7209 10.2281L15.706 10.2378C15.6807 10.255 15.6628 10.2809 15.656 10.3105C15.6492 10.3401 15.6539 10.3711 15.6693 10.3974L16.1558 11.2235C16.1649 11.239 16.1774 11.2523 16.1923 11.2624C16.2072 11.2726 16.2242 11.2793 16.2422 11.2822C16.2597 11.2854 16.2776 11.2846 16.2948 11.28C16.312 11.2755 16.3279 11.2672 16.3415 11.2558L16.3801 11.2245C16.6333 11.015 17.0393 10.7351 18.0222 10.6587C18.5692 10.6157 19.0418 10.7566 19.3903 11.0777C19.7734 11.4261 20.0028 11.989 20.0028 12.5831C20.0028 13.6765 19.3495 14.3636 18.3002 14.3773C17.4354 14.3724 16.8546 13.928 16.8546 13.2712C16.8546 12.9228 17.0145 12.6957 17.3263 12.4686C17.35 12.4518 17.3669 12.4271 17.3736 12.399C17.3804 12.371 17.3766 12.3414 17.363 12.3159L16.9262 11.5015C16.9181 11.4869 16.9072 11.4741 16.8941 11.4637C16.881 11.4532 16.8659 11.4455 16.8497 11.4408C16.8332 11.436 16.8158 11.4346 16.7988 11.4368C16.7816 11.439 16.7651 11.4447 16.7504 11.4536C16.26 11.7403 15.6584 12.265 15.6911 13.2732C15.7308 14.5565 16.813 15.5363 18.2197 15.5764H18.2902H18.3865C20.0583 15.5226 21.2655 14.299 21.2655 12.6399C21.2655 11.1168 20.1397 9.48608 18.057 9.48608Z" fill="#5A31F4"/>
<path d="M32.7182 10.2691H31.8802C31.8607 10.2694 31.8418 10.2772 31.8279 10.2909C31.8139 10.3046 31.806 10.3232 31.8059 10.3425V12.0761C31.806 12.0954 31.814 12.1138 31.828 12.1273C31.8419 12.1409 31.8607 12.1485 31.8802 12.1485H32.7182C33.2285 12.1485 33.6048 11.7521 33.6048 11.2088C33.6048 10.6656 33.2285 10.2691 32.7182 10.2691Z" fill="#5A31F4"/>
<path d="M35.2924 13.3358C35.2924 13.5873 35.5078 13.7273 35.883 13.7273C36.3933 13.7273 36.6951 13.4552 36.6951 12.9726V12.8336L35.9307 12.8728C35.5276 12.8923 35.2924 13.0578 35.2924 13.3358Z" fill="#5A31F4"/>
<path d="M41.4972 8.0178H30.2392C30.0546 8.0178 29.8716 8.05368 29.7011 8.1234C29.5304 8.19312 29.3754 8.2953 29.2449 8.42411C29.1143 8.55292 29.0108 8.70583 28.9402 8.8741C28.8695 9.04238 28.8333 9.22272 28.8335 9.40482V15.4814C28.8335 15.8491 28.9816 16.2018 29.2452 16.4619C29.5088 16.7219 29.8664 16.8682 30.2392 16.8684H41.4972C41.6821 16.869 41.8654 16.8335 42.0364 16.7642C42.2073 16.6949 42.3628 16.5929 42.4939 16.4643C42.6248 16.3356 42.7289 16.1828 42.8 16.0145C42.871 15.8462 42.9077 15.6657 42.908 15.4834V9.40677C42.9083 9.2241 42.8721 9.04314 42.8013 8.87432C42.7306 8.7055 42.6266 8.55214 42.4955 8.42306C42.3645 8.29398 42.2088 8.19173 42.0375 8.12218C41.8662 8.05263 41.6825 8.01715 41.4972 8.0178ZM32.7608 12.8308H31.8753C31.8555 12.8308 31.8367 12.8385 31.8226 12.8522C31.8087 12.866 31.8008 12.8847 31.8008 12.9042V14.1473C31.8008 14.1667 31.793 14.1854 31.779 14.1992C31.765 14.213 31.7462 14.2207 31.7264 14.2207H31.1028C31.0833 14.2204 31.0644 14.2126 31.0505 14.1989C31.0366 14.1852 31.0288 14.1667 31.0285 14.1473V9.66322C31.0285 9.64376 31.0363 9.62509 31.0504 9.61131C31.0643 9.59755 31.0831 9.58982 31.1028 9.58982H32.7608C33.7 9.58982 34.3721 10.2642 34.3721 11.2108C34.3721 12.1573 33.7049 12.8327 32.7659 12.8327L32.7608 12.8308ZM37.4268 14.1463C37.427 14.156 37.4253 14.1657 37.4215 14.1747C37.4178 14.1837 37.4123 14.1919 37.4055 14.1988C37.3984 14.2058 37.3902 14.2113 37.3811 14.215C37.3721 14.2188 37.3622 14.2207 37.3524 14.2207H36.7637C36.7538 14.2207 36.744 14.2188 36.735 14.215C36.7258 14.2113 36.7175 14.2058 36.7107 14.1988C36.7038 14.1919 36.6983 14.1837 36.6947 14.1747C36.691 14.1657 36.6891 14.156 36.6893 14.1463V14.0122C36.6902 14.0004 36.6874 13.9887 36.6809 13.9787C36.6747 13.9687 36.6653 13.9609 36.654 13.9566C36.6429 13.9523 36.6307 13.9517 36.6191 13.9549C36.6075 13.958 36.5973 13.9647 36.59 13.974C36.4142 14.1629 36.1283 14.3 35.6726 14.3C35.0016 14.3 34.5577 13.9554 34.5577 13.3603C34.5513 13.2152 34.5816 13.0708 34.6462 12.9402C34.7106 12.8096 34.8072 12.6969 34.9271 12.6125C35.1693 12.4333 35.5445 12.3404 36.1015 12.3188L36.6922 12.2992V12.1289C36.6922 11.7853 36.4579 11.6395 36.0816 11.6395C35.7054 11.6395 35.468 11.7707 35.4126 11.985C35.4081 12.0002 35.3987 12.0134 35.3857 12.0226C35.3728 12.0319 35.357 12.0365 35.341 12.0359H34.7583C34.7476 12.0362 34.7369 12.0341 34.7271 12.0299C34.7174 12.0257 34.7085 12.0194 34.7014 12.0114C34.6943 12.0035 34.689 11.9942 34.686 11.984C34.683 11.9739 34.6822 11.9632 34.6838 11.9527C34.7712 11.4437 35.1981 11.0571 36.1085 11.0571C37.0755 11.0571 37.4239 11.5005 37.4239 12.3472L37.4268 14.1463ZM41.0942 11.2372L39.7838 14.6837C39.4859 15.4844 38.9647 15.6899 38.3938 15.6899C38.2863 15.6925 38.1789 15.6797 38.0751 15.6518C38.0589 15.6475 38.0448 15.6381 38.0344 15.625C38.0243 15.6119 38.0187 15.5958 38.0185 15.5793V15.0556C38.0185 15.0447 38.0209 15.0339 38.0256 15.0239C38.0303 15.014 38.0371 15.0052 38.0457 14.9982C38.0543 14.9912 38.0642 14.9861 38.075 14.9834C38.0857 14.9806 38.097 14.9802 38.1079 14.9822C38.1979 14.9991 38.2893 15.0076 38.3809 15.0077C38.5388 15.0155 38.6947 14.9708 38.8239 14.8808C38.9528 14.7909 39.0475 14.6608 39.0927 14.5114L39.1315 14.391C39.1375 14.3749 39.1375 14.3572 39.1315 14.3411L37.9064 11.2382C37.9026 11.2271 37.9016 11.2153 37.9034 11.2037C37.9052 11.1921 37.9097 11.1811 37.9164 11.1716C37.9233 11.1621 37.9324 11.1543 37.9428 11.1488C37.9533 11.1434 37.965 11.1405 37.9768 11.1403H38.5726C38.5878 11.1404 38.6026 11.1451 38.6152 11.1536C38.6278 11.1622 38.6374 11.1742 38.643 11.1883L39.475 13.3769C39.4805 13.3912 39.4902 13.4036 39.503 13.4122C39.5158 13.4209 39.531 13.4256 39.5465 13.4256C39.5619 13.4256 39.5772 13.4209 39.5899 13.4122C39.6026 13.4036 39.6125 13.3912 39.6179 13.3769L40.3397 11.1941C40.3445 11.1792 40.3541 11.1663 40.3669 11.1571C40.3798 11.148 40.3952 11.1431 40.411 11.1432H41.0218C41.0335 11.1432 41.0451 11.1459 41.0557 11.1511C41.0662 11.1563 41.0754 11.1639 41.0825 11.1732C41.0895 11.1825 41.0942 11.1933 41.0962 11.2048C41.0983 11.2162 41.0976 11.228 41.0942 11.2392V11.2372Z" fill="#5A31F4"/>
</g>
<defs>
<clipPath id="clip0_2_10">
<rect width="38" height="9" fill="white" transform="translate(5 8)"/>
</clipPath>
</defs>
</svg>
