<svg width="48" height="24" viewBox="0 0 48 24" fill="none" xmlns="http://www.w3.org/2000/svg">
<rect width="48" height="24" rx="2" fill="#B2FCE4"/>
<path d="M7.29211 12.1932C7.29211 11.5147 6.7872 11.0381 6.16682 11.0381C5.54643 11.0381 5.04152 11.523 5.04152 12.1932C5.04152 12.8555 5.54643 13.3479 6.16682 13.3479C6.78796 13.3479 7.29211 12.8717 7.29211 12.1932ZM7.30117 14.2121V13.6872C6.99513 14.0506 6.53928 14.2763 5.99399 14.2763C4.86039 14.2763 4 13.3879 4 12.1932C4 11.006 4.89322 10.1019 6.01927 10.1019C6.54909 10.1019 6.99551 10.3283 7.30155 10.683V10.1743H8.3193V14.2121H7.30117ZM13.262 13.3155C12.9058 13.3155 12.8069 13.1864 12.8069 12.8476V11.0547H13.4609V10.1739H12.8069V9.18903H11.7639V10.1739H10.4205V9.92866C10.4205 9.58903 10.5533 9.4596 10.9174 9.4596H11.1461V8.67657H10.6442C9.78384 8.67657 9.37856 8.95129 9.37856 9.79092V10.1736H8.7993V11.0547H9.37856V14.2117H10.4216V11.0547H11.765V13.0332C11.765 13.857 12.0873 14.2125 12.9311 14.2125H13.4692V13.3159H13.2616L13.262 13.3155ZM17.002 11.8294C16.9277 11.3049 16.4888 10.9898 15.976 10.9898C15.4628 10.9898 15.0409 11.2966 14.9337 11.8294H17.0017H17.002ZM14.925 12.4596C14.9998 13.057 15.4383 13.3966 15.9926 13.3966C16.4311 13.3966 16.7707 13.1944 16.9688 12.8713H18.0368C17.7881 13.7272 17.002 14.2763 15.9677 14.2763C14.7186 14.2763 13.8416 13.4208 13.8416 12.2011C13.8416 10.9819 14.7684 10.1015 15.9934 10.1015C17.2262 10.1015 18.1194 10.9898 18.1194 12.2011C18.1194 12.2902 18.1115 12.3785 18.0949 12.4596H14.925ZM24.7501 12.1932C24.7501 11.5389 24.2451 11.0381 23.6248 11.0381C23.0044 11.0381 22.4995 11.523 22.4995 12.1932C22.4995 12.8555 23.0044 13.3479 23.6248 13.3479C24.2451 13.3479 24.7501 12.8476 24.7501 12.1932ZM21.473 10.1743H22.4908V10.6992C22.7965 10.3275 23.2516 10.1019 23.798 10.1019C24.915 10.1019 25.7916 10.9985 25.7916 12.1849C25.7916 13.3725 24.8984 14.277 23.7731 14.277C23.2516 14.277 22.8214 14.0747 22.524 13.7359V15.8736H21.473V10.1743ZM29.4596 12.1932C29.4596 11.5147 28.9554 11.0381 28.3343 11.0381C27.7139 11.0381 27.209 11.523 27.209 12.1932C27.209 12.8555 27.7139 13.3479 28.3343 13.3479C28.9554 13.3479 29.4596 12.8717 29.4596 12.1932ZM29.4686 14.2121V13.6872C29.1626 14.0506 28.7067 14.2763 28.1614 14.2763C27.0278 14.2763 26.1674 13.3879 26.1674 12.1932C26.1674 11.006 27.0607 10.1019 28.1863 10.1019C28.7158 10.1019 29.1626 10.3283 29.4686 10.683V10.1743H30.486V14.2121H29.4686ZM19.6391 10.5702C19.6391 10.5702 19.8979 10.1022 20.5323 10.1022C20.8036 10.1022 20.9791 10.1928 20.9791 10.1928V11.223C20.9791 11.223 20.5964 10.9924 20.2447 11.0389C19.893 11.0853 19.6708 11.4004 19.6719 11.8223V14.2129H18.6213V10.1751H19.6391V10.5702ZM35.2385 10.1743L32.6694 15.8608H31.586L32.5947 13.6623L30.889 10.1743H32.1169L33.1147 12.5049L34.1385 10.1743H35.2385ZM43.4397 10.0826L40.8925 8.64827C40.1453 8.22713 39.2106 8.75317 39.2106 9.5962V9.74337C39.2106 9.8762 39.2834 9.99922 39.4012 10.0653L39.8823 10.3362C40.0235 10.4162 40.1993 10.3166 40.1993 10.1577V9.79168C40.1993 9.60865 40.4023 9.49394 40.5646 9.58563L42.7707 10.8287C42.9329 10.92 42.9329 11.1487 42.7707 11.24L40.5646 12.4827C40.4023 12.574 40.1997 12.46 40.1997 12.2766V12.0819C40.1997 11.2392 39.265 10.7121 38.5166 11.134L35.9694 12.5687C35.7996 12.662 35.658 12.7992 35.5593 12.9659C35.4606 13.1327 35.4086 13.3229 35.4086 13.5166C35.4086 13.7104 35.4606 13.9006 35.5593 14.0673C35.658 14.2341 35.7996 14.3713 35.9694 14.4646L38.5166 15.8989C39.2642 16.3201 40.1997 15.794 40.1997 14.951V14.8038C40.1992 14.738 40.1813 14.6736 40.1478 14.617C40.1142 14.5605 40.0662 14.5138 40.0087 14.4819L39.528 14.2102C39.3868 14.1306 39.2106 14.2302 39.2106 14.3891V14.7551C39.2106 14.9382 39.0076 15.0525 38.8457 14.9608L36.6393 13.7181C36.6024 13.6978 36.5718 13.668 36.5504 13.6318C36.529 13.5956 36.5177 13.5543 36.5177 13.5123C36.5177 13.4702 36.529 13.429 36.5504 13.3928C36.5718 13.3566 36.6024 13.3267 36.6393 13.3064L38.8457 12.0634C39.008 11.9717 39.2106 12.086 39.2106 12.2694V12.4642C39.2106 13.3068 40.145 13.834 40.8925 13.4121L43.4397 11.9774C43.6094 11.8841 43.7509 11.747 43.8494 11.5804C43.948 11.4138 44 11.2238 44 11.0302C44 10.8366 43.948 10.6466 43.8494 10.4799C43.7509 10.3133 43.6094 10.1762 43.4397 10.083V10.0826Z" fill="black"/>
</svg>
