<svg width="22" height="22" viewBox="0 0 22 22" fill="black" xmlns="http://www.w3.org/2000/svg">
    <path d="M19.25 5.5H15.125V4.8125C15.125 4.26549 14.9077 3.74089 14.5209 3.35409C14.1341 2.9673 13.6095 2.75 13.0625 2.75H8.9375C8.39049 2.75 7.86589 2.9673 7.47909 3.35409C7.0923 3.74089 6.875 4.26549 6.875 4.8125V5.5H2.75C2.38533 5.5 2.03559 5.64487 1.77773 5.90273C1.51987 6.16059 1.375 6.51033 1.375 6.875V16.5C1.375 16.8647 1.51987 17.2144 1.77773 17.4723C2.03559 17.7301 2.38533 17.875 2.75 17.875H19.25C19.6147 17.875 19.9644 17.7301 20.2223 17.4723C20.4801 17.2144 20.625 16.8647 20.625 16.5V6.875C20.625 6.51033 20.4801 6.16059 20.2223 5.90273C19.9644 5.64487 19.6147 5.5 19.25 5.5ZM8.25 4.8125C8.25 4.63016 8.32243 4.4553 8.45136 4.32636C8.5803 4.19743 8.75516 4.125 8.9375 4.125H13.0625C13.2448 4.125 13.4197 4.19743 13.5486 4.32636C13.6776 4.4553 13.75 4.63016 13.75 4.8125V5.5H8.25V4.8125ZM19.25 6.875V9.625H16.5V8.9375C16.5 8.75516 16.4276 8.5803 16.2986 8.45136C16.1697 8.32243 15.9948 8.25 15.8125 8.25C15.6302 8.25 15.4553 8.32243 15.3264 8.45136C15.1974 8.5803 15.125 8.75516 15.125 8.9375V9.625H6.875V8.9375C6.875 8.75516 6.80257 8.5803 6.67364 8.45136C6.5447 8.32243 6.36984 8.25 6.1875 8.25C6.00516 8.25 5.8303 8.32243 5.70136 8.45136C5.57243 8.5803 5.5 8.75516 5.5 8.9375V9.625H2.75V6.875H19.25ZM19.25 16.5H2.75V11H5.5V11.6875C5.5 11.8698 5.57243 12.0447 5.70136 12.1736C5.8303 12.3026 6.00516 12.375 6.1875 12.375C6.36984 12.375 6.5447 12.3026 6.67364 12.1736C6.80257 12.0447 6.875 11.8698 6.875 11.6875V11H15.125V11.6875C15.125 11.8698 15.1974 12.0447 15.3264 12.1736C15.4553 12.3026 15.6302 12.375 15.8125 12.375C15.9948 12.375 16.1697 12.3026 16.2986 12.1736C16.4276 12.0447 16.5 11.8698 16.5 11.6875V11H19.25V16.5Z"/>
</svg>
