<svg width="54" height="54" viewBox="0 0 54 54" fill="none" xmlns="http://www.w3.org/2000/svg">
<path fill-rule="evenodd" clip-rule="evenodd" d="M22.625 1.6875V8.4375H24.3125V1.6875H22.625ZM33.4293 6.03596L28.1835 10.2839L29.2455 11.5953L34.4913 7.34739L33.4293 6.03596ZM36.8126 17.4022L30.2356 15.8838L29.856 17.528L36.433 19.0465L36.8126 17.4022ZM10.5046 19.0465L17.0816 17.528L16.702 15.8838L10.125 17.4022L10.5046 19.0465ZM12.4463 7.34739L17.6921 11.5953L18.7541 10.2839L13.5083 6.03596L12.4463 7.34739ZM32.75 22.7659C32.75 21.3764 31.6265 20.25 30.2188 20.25C28.8208 20.25 27.6875 21.3911 27.6875 22.7659V26.0424V30.375H26V26.1562V14.3583C26 12.9523 24.8765 11.8125 23.4688 11.8125C22.0708 11.8125 20.9375 12.9371 20.9375 14.3583V31.7222C17.464 28.009 12.8909 23.9273 11.0168 25.8115C9.18219 27.656 13.9097 32.7387 20.5112 43.8465C23.4857 48.8512 27.2493 52.3117 33.5938 52.3125C40.5837 52.3125 46.25 46.6461 46.25 39.6562V34.1665V26.167C46.25 24.7631 45.1265 23.625 43.7188 23.625C42.3208 23.625 41.1875 24.7665 41.1875 26.167V29.9527V30.375H39.5V26.4569V24.454C39.5 23.0642 38.3765 21.9375 36.9688 21.9375C35.5708 21.9375 34.4375 23.0555 34.4375 24.454V26.1701V28.6875H32.75V26.1701V22.7659Z" fill="#157EFB"/>
</svg>
