<svg width="22" height="22" viewBox="0 0 22 22" fill="black" xmlns="http://www.w3.org/2000/svg">
    <path d="M2.0625 8.9375H4.125V14.4375H2.75C2.56766 14.4375 2.3928 14.5099 2.26386 14.6389C2.13493 14.7678 2.0625 14.9427 2.0625 15.125C2.0625 15.3073 2.13493 15.4822 2.26386 15.6111C2.3928 15.7401 2.56766 15.8125 2.75 15.8125H19.25C19.4323 15.8125 19.6072 15.7401 19.7361 15.6111C19.8651 15.4822 19.9375 15.3073 19.9375 15.125C19.9375 14.9427 19.8651 14.7678 19.7361 14.6389C19.6072 14.5099 19.4323 14.4375 19.25 14.4375H17.875V8.9375H19.9375C20.0871 8.93735 20.2325 8.88841 20.3518 8.79812C20.4711 8.70782 20.5576 8.5811 20.5983 8.43716C20.6391 8.29322 20.6317 8.13993 20.5775 8.00054C20.5232 7.86115 20.4249 7.74326 20.2976 7.66477L11.3601 2.16477C11.2518 2.09818 11.1271 2.06293 11 2.06293C10.8729 2.06293 10.7482 2.09818 10.6399 2.16477L1.70242 7.66477C1.57509 7.74326 1.47683 7.86115 1.42255 8.00054C1.36827 8.13993 1.36094 8.29322 1.40166 8.43716C1.44238 8.5811 1.52894 8.70782 1.6482 8.79812C1.76746 8.88841 1.91291 8.93735 2.0625 8.9375ZM5.5 8.9375H8.25V14.4375H5.5V8.9375ZM12.375 8.9375V14.4375H9.625V8.9375H12.375ZM16.5 14.4375H13.75V8.9375H16.5V14.4375ZM11 3.55695L17.5089 7.5625H4.49109L11 3.55695ZM21.3125 17.875C21.3125 18.0573 21.2401 18.2322 21.1111 18.3611C20.9822 18.4901 20.8073 18.5625 20.625 18.5625H1.375C1.19266 18.5625 1.0178 18.4901 0.888864 18.3611C0.759933 18.2322 0.6875 18.0573 0.6875 17.875C0.6875 17.6927 0.759933 17.5178 0.888864 17.3889C1.0178 17.2599 1.19266 17.1875 1.375 17.1875H20.625C20.8073 17.1875 20.9822 17.2599 21.1111 17.3889C21.2401 17.5178 21.3125 17.6927 21.3125 17.875Z"/>
</svg>
