<svg width="22" height="22" viewBox="0 0 22 22" fill="black" xmlns="http://www.w3.org/2000/svg">
    <path d="M19.25 11C19.25 11.1823 19.1776 11.3572 19.0487 11.4861C18.9197 11.6151 18.7449 11.6875 18.5625 11.6875H11C10.8177 11.6875 10.6428 11.6151 10.5139 11.4861C10.3849 11.3572 10.3125 11.1823 10.3125 11C10.3125 10.8177 10.3849 10.6428 10.5139 10.5139C10.6428 10.3849 10.8177 10.3125 11 10.3125H18.5625C18.7449 10.3125 18.9197 10.3849 19.0487 10.5139C19.1776 10.6428 19.25 10.8177 19.25 11ZM11 6.1875H18.5625C18.7449 6.1875 18.9197 6.11507 19.0487 5.98614C19.1776 5.85721 19.25 5.68234 19.25 5.5C19.25 5.31766 19.1776 5.1428 19.0487 5.01387C18.9197 4.88493 18.7449 4.8125 18.5625 4.8125H11C10.8177 4.8125 10.6428 4.88493 10.5139 5.01387C10.3849 5.1428 10.3125 5.31766 10.3125 5.5C10.3125 5.68234 10.3849 5.85721 10.5139 5.98614C10.6428 6.11507 10.8177 6.1875 11 6.1875ZM18.5625 15.8125H11C10.8177 15.8125 10.6428 15.8849 10.5139 16.0139C10.3849 16.1428 10.3125 16.3177 10.3125 16.5C10.3125 16.6823 10.3849 16.8572 10.5139 16.9861C10.6428 17.1151 10.8177 17.1875 11 17.1875H18.5625C18.7449 17.1875 18.9197 17.1151 19.0487 16.9861C19.1776 16.8572 19.25 16.6823 19.25 16.5C19.25 16.3177 19.1776 16.1428 19.0487 16.0139C18.9197 15.8849 18.7449 15.8125 18.5625 15.8125ZM7.07611 3.63859L4.81252 5.90305L3.92392 5.01359C3.79492 4.88459 3.61995 4.81212 3.43752 4.81212C3.25508 4.81212 3.08011 4.88459 2.95111 5.01359C2.82211 5.1426 2.74963 5.31756 2.74963 5.5C2.74963 5.68244 2.82211 5.8574 2.95111 5.98641L4.32611 7.36141C4.38996 7.42533 4.46578 7.47604 4.54924 7.51064C4.63271 7.54523 4.72217 7.56304 4.81252 7.56304C4.90286 7.56304 4.99233 7.54523 5.07579 7.51064C5.15925 7.47604 5.23507 7.42533 5.29892 7.36141L8.04892 4.61141C8.17793 4.4824 8.2504 4.30744 8.2504 4.125C8.2504 3.94256 8.17793 3.7676 8.04892 3.63859C7.91992 3.50959 7.74495 3.43712 7.56252 3.43712C7.38008 3.43712 7.20511 3.50959 7.07611 3.63859ZM7.07611 9.13859L4.81252 11.403L3.92392 10.5136C3.79492 10.3846 3.61995 10.3121 3.43752 10.3121C3.25508 10.3121 3.08011 10.3846 2.95111 10.5136C2.82211 10.6426 2.74963 10.8176 2.74963 11C2.74963 11.0903 2.76743 11.1798 2.802 11.2632C2.83657 11.3467 2.88723 11.4225 2.95111 11.4864L4.32611 12.8614C4.38996 12.9253 4.46578 12.976 4.54924 13.0106C4.63271 13.0452 4.72217 13.063 4.81252 13.063C4.90286 13.063 4.99233 13.0452 5.07579 13.0106C5.15925 12.976 5.23507 12.9253 5.29892 12.8614L8.04892 10.1114C8.17793 9.98241 8.2504 9.80744 8.2504 9.625C8.2504 9.44256 8.17793 9.2676 8.04892 9.13859C7.91992 9.00959 7.74495 8.93712 7.56252 8.93712C7.38008 8.93712 7.20511 9.00959 7.07611 9.13859ZM7.07611 14.6386L4.81252 16.903L3.92392 16.0136C3.86005 15.9497 3.78421 15.8991 3.70076 15.8645C3.6173 15.8299 3.52785 15.8121 3.43752 15.8121C3.34718 15.8121 3.25773 15.8299 3.17427 15.8645C3.09082 15.8991 3.01499 15.9497 2.95111 16.0136C2.88723 16.0775 2.83657 16.1533 2.802 16.2368C2.76743 16.3202 2.74963 16.4097 2.74963 16.5C2.74963 16.5903 2.76743 16.6798 2.802 16.7632C2.83657 16.8467 2.88723 16.9225 2.95111 16.9864L4.32611 18.3614C4.38996 18.4253 4.46578 18.476 4.54924 18.5106C4.63271 18.5452 4.72217 18.563 4.81252 18.563C4.90286 18.563 4.99233 18.5452 5.07579 18.5106C5.15925 18.476 5.23507 18.4253 5.29892 18.3614L8.04892 15.6114C8.17793 15.4824 8.2504 15.3074 8.2504 15.125C8.2504 14.9426 8.17793 14.7676 8.04892 14.6386C7.91992 14.5096 7.74495 14.4371 7.56252 14.4371C7.38008 14.4371 7.20511 14.5096 7.07611 14.6386Z"/>
</svg>
