<svg width="100" height="25" viewBox="0 0 100 25" fill="black" xmlns="http://www.w3.org/2000/svg">
    <path d="M0.721591 19V1.54545H12.0739V4.19602H3.88352V8.93466H11.4858V11.5852H3.88352V16.3494H12.142V19H0.721591ZM18.9304 19.2642C18.1009 19.2642 17.3537 19.1165 16.6889 18.821C16.0298 18.5199 15.5071 18.0767 15.1207 17.4915C14.7401 16.9062 14.5497 16.1847 14.5497 15.3267C14.5497 14.5881 14.6861 13.9773 14.9588 13.4943C15.2315 13.0114 15.6037 12.625 16.0753 12.3352C16.5469 12.0455 17.0781 11.8267 17.669 11.679C18.2656 11.5256 18.8821 11.4148 19.5185 11.3466C20.2855 11.267 20.9077 11.196 21.3849 11.1335C21.8622 11.0653 22.2088 10.9631 22.4247 10.8267C22.6463 10.6847 22.7571 10.4659 22.7571 10.1705V10.1193C22.7571 9.47727 22.5668 8.98011 22.1861 8.62784C21.8054 8.27557 21.2571 8.09943 20.5412 8.09943C19.7855 8.09943 19.1861 8.2642 18.7429 8.59375C18.3054 8.9233 18.0099 9.3125 17.8565 9.76136L14.9759 9.35227C15.2031 8.55682 15.5781 7.89205 16.1009 7.35795C16.6236 6.81818 17.2628 6.41477 18.0185 6.14773C18.7741 5.875 19.6094 5.73864 20.5241 5.73864C21.1548 5.73864 21.7827 5.8125 22.4077 5.96023C23.0327 6.10795 23.6037 6.35227 24.1207 6.69318C24.6378 7.02841 25.0526 7.4858 25.3651 8.06534C25.6832 8.64489 25.8423 9.36932 25.8423 10.2386V19H22.8764V17.2017H22.7741C22.5866 17.5653 22.3224 17.9062 21.9815 18.2244C21.6463 18.5369 21.223 18.7898 20.7116 18.983C20.206 19.1705 19.6122 19.2642 18.9304 19.2642ZM19.7315 16.9972C20.3509 16.9972 20.8878 16.875 21.3423 16.6307C21.7969 16.3807 22.1463 16.0511 22.3906 15.642C22.6406 15.233 22.7656 14.7869 22.7656 14.304V12.7614C22.669 12.8409 22.5043 12.9148 22.2713 12.983C22.044 13.0511 21.7884 13.1108 21.5043 13.1619C21.2202 13.2131 20.9389 13.2585 20.6605 13.2983C20.3821 13.3381 20.1406 13.3722 19.9361 13.4006C19.4759 13.4631 19.0639 13.5653 18.7003 13.7074C18.3366 13.8494 18.0497 14.0483 17.8395 14.304C17.6293 14.554 17.5241 14.8778 17.5241 15.2756C17.5241 15.8438 17.7315 16.2727 18.1463 16.5625C18.5611 16.8523 19.0895 16.9972 19.7315 16.9972ZM28.9446 19V5.90909H31.9361V8.09091H32.0724C32.3111 7.33523 32.7202 6.75284 33.2997 6.34375C33.8849 5.92898 34.5526 5.72159 35.3026 5.72159C35.473 5.72159 35.6634 5.73011 35.8736 5.74716C36.0895 5.75852 36.2685 5.77841 36.4105 5.80682V8.64489C36.2798 8.59943 36.0724 8.55966 35.7884 8.52557C35.5099 8.4858 35.2401 8.46591 34.9787 8.46591C34.4162 8.46591 33.9105 8.58807 33.4616 8.83239C33.0185 9.07102 32.669 9.40341 32.4134 9.82955C32.1577 10.2557 32.0298 10.7472 32.0298 11.304V19H28.9446ZM41.5455 11.3295V19H38.4602V5.90909H41.4091V8.13352H41.5625C41.8636 7.40057 42.3438 6.81818 43.0028 6.38636C43.6676 5.95455 44.4886 5.73864 45.4659 5.73864C46.3693 5.73864 47.1563 5.93182 47.8267 6.31818C48.5028 6.70455 49.0256 7.2642 49.3949 7.99716C49.7699 8.73011 49.9545 9.61932 49.9489 10.6648V19H46.8636V11.142C46.8636 10.267 46.6364 9.58239 46.1818 9.08807C45.733 8.59375 45.1108 8.34659 44.3153 8.34659C43.7756 8.34659 43.2955 8.46591 42.875 8.70455C42.4602 8.9375 42.1335 9.27557 41.8949 9.71875C41.6619 10.1619 41.5455 10.6989 41.5455 11.3295ZM53.0852 19V5.90909H56.1705V19H53.0852ZM54.6364 4.05114C54.1477 4.05114 53.7273 3.8892 53.375 3.56534C53.0227 3.23579 52.8466 2.84091 52.8466 2.38068C52.8466 1.91477 53.0227 1.51989 53.375 1.19602C53.7273 0.866477 54.1477 0.701704 54.6364 0.701704C55.1307 0.701704 55.5511 0.866477 55.8977 1.19602C56.25 1.51989 56.4261 1.91477 56.4261 2.38068C56.4261 2.84091 56.25 3.23579 55.8977 3.56534C55.5511 3.8892 55.1307 4.05114 54.6364 4.05114ZM62.4283 11.3295V19H59.343V5.90909H62.2919V8.13352H62.4453C62.7464 7.40057 63.2266 6.81818 63.8857 6.38636C64.5504 5.95455 65.3714 5.73864 66.3487 5.73864C67.2521 5.73864 68.0391 5.93182 68.7095 6.31818C69.3857 6.70455 69.9084 7.2642 70.2777 7.99716C70.6527 8.73011 70.8374 9.61932 70.8317 10.6648V19H67.7464V11.142C67.7464 10.267 67.5192 9.58239 67.0646 9.08807C66.6158 8.59375 65.9936 8.34659 65.1982 8.34659C64.6584 8.34659 64.1783 8.46591 63.7578 8.70455C63.343 8.9375 63.0163 9.27557 62.7777 9.71875C62.5447 10.1619 62.4283 10.6989 62.4283 11.3295ZM79.6612 24.1818C78.5533 24.1818 77.6016 24.0313 76.8061 23.7301C76.0107 23.4347 75.3714 23.0369 74.8885 22.5369C74.4055 22.0369 74.0703 21.483 73.8828 20.875L76.6612 20.2017C76.7862 20.4574 76.968 20.7102 77.2067 20.9602C77.4453 21.2159 77.7663 21.4261 78.1697 21.5909C78.5788 21.7614 79.093 21.8466 79.7124 21.8466C80.5874 21.8466 81.3118 21.6335 81.8857 21.2074C82.4595 20.7869 82.7464 20.0938 82.7464 19.1278V16.6477H82.593C82.4339 16.9659 82.201 17.2926 81.8942 17.6278C81.593 17.9631 81.1925 18.2443 80.6925 18.4716C80.1982 18.6989 79.576 18.8125 78.826 18.8125C77.8203 18.8125 76.9084 18.5767 76.0902 18.1051C75.2777 17.6278 74.63 16.9176 74.147 15.9744C73.6697 15.0256 73.4311 13.8381 73.4311 12.4119C73.4311 10.9744 73.6697 9.76136 74.147 8.77273C74.63 7.77841 75.2805 7.02557 76.0987 6.5142C76.9169 5.99716 77.8288 5.73864 78.8345 5.73864C79.6016 5.73864 80.2322 5.86932 80.7266 6.13068C81.2266 6.38636 81.6243 6.69602 81.9197 7.05966C82.2152 7.41761 82.4396 7.75568 82.593 8.07386H82.7635V5.90909H85.8061V19.2131C85.8061 20.3324 85.5391 21.2585 85.005 21.9915C84.4709 22.7244 83.7408 23.2727 82.8146 23.6364C81.8885 24 80.8374 24.1818 79.6612 24.1818ZM79.6868 16.392C80.3402 16.392 80.897 16.233 81.3572 15.9148C81.8175 15.5966 82.1669 15.1392 82.4055 14.5426C82.6442 13.946 82.7635 13.2301 82.7635 12.3949C82.7635 11.571 82.6442 10.8494 82.4055 10.2301C82.1726 9.6108 81.826 9.13068 81.3658 8.78977C80.9112 8.44318 80.3516 8.26989 79.6868 8.26989C78.9993 8.26989 78.4254 8.44886 77.9652 8.80682C77.505 9.16477 77.1584 9.65625 76.9254 10.2812C76.6925 10.9006 76.576 11.6051 76.576 12.3949C76.576 13.196 76.6925 13.8977 76.9254 14.5C77.1641 15.0966 77.5135 15.5625 77.9737 15.8977C78.4396 16.2273 79.0107 16.392 79.6868 16.392ZM99.3146 9.36932L96.5021 9.67614C96.4226 9.39205 96.2834 9.125 96.0845 8.875C95.8913 8.625 95.63 8.4233 95.3004 8.26989C94.9709 8.11648 94.5675 8.03977 94.0902 8.03977C93.4482 8.03977 92.9084 8.17898 92.4709 8.45739C92.0391 8.7358 91.826 9.09659 91.8317 9.53977C91.826 9.92045 91.9652 10.2301 92.2493 10.4688C92.5391 10.7074 93.0163 10.9034 93.6811 11.0568L95.9141 11.5341C97.1527 11.8011 98.0732 12.2244 98.6754 12.804C99.2834 13.3835 99.5902 14.142 99.5959 15.0795C99.5902 15.9034 99.3487 16.6307 98.8714 17.2614C98.3999 17.8864 97.7436 18.375 96.9027 18.7273C96.0618 19.0795 95.0959 19.2557 94.005 19.2557C92.4027 19.2557 91.1129 18.9205 90.1357 18.25C89.1584 17.5739 88.576 16.6335 88.3885 15.429L91.397 15.1392C91.5334 15.7301 91.8232 16.1761 92.2663 16.4773C92.7095 16.7784 93.2862 16.929 93.9964 16.929C94.7294 16.929 95.3175 16.7784 95.7607 16.4773C96.2095 16.1761 96.4339 15.804 96.4339 15.3608C96.4339 14.9858 96.2891 14.6761 95.9993 14.4318C95.7152 14.1875 95.272 14 94.6697 13.8693L92.4368 13.4006C91.1811 13.1392 90.2521 12.6989 89.6499 12.0795C89.0476 11.4545 88.7493 10.6648 88.755 9.71023C88.7493 8.90341 88.968 8.20455 89.4112 7.61364C89.8601 7.01705 90.4822 6.55682 91.2777 6.23295C92.0788 5.90341 93.0021 5.73864 94.0476 5.73864C95.5817 5.73864 96.7891 6.06534 97.6697 6.71875C98.5561 7.37216 99.1044 8.25568 99.3146 9.36932Z" />
</svg>
