<svg width="37" height="37" viewBox="0 0 37 37" fill="none" xmlns="http://www.w3.org/2000/svg">
    <path d="M1.54166 13.875V18.5V21.5833V32.375C1.54166 34.0708 2.92206 35.4583 4.62499 35.4583H18.5H32.375C34.0785 35.4583 35.4583 34.0708 35.4583 32.375V21.5833V18.5V13.875H1.54166Z" fill="#F39C12"/>
    <path d="M1.54166 12.3333V16.9583V20.0417V30.8333C1.54166 32.5292 2.92206 33.9167 4.62499 33.9167H18.5H32.375C34.0785 33.9167 35.4583 32.5292 35.4583 30.8333V20.0417V16.9583V12.3333H1.54166Z" fill="#F1C40F"/>
    <path d="M3.08333 9.25C1.38041 9.25 0 10.6375 0 12.3333V15.4167H37V12.3333C37 10.6375 35.6202 9.25 33.9167 9.25H30.8333H20.0417H16.9583H6.16667H3.08333Z" fill="#F1C40F"/>
    <path d="M23.125 7.70833H13.875V35.4583H23.125V7.70833Z" fill="#E74C3C"/>
    <path d="M12.1557 1.5416C10.6162 1.38743 9.11356 2.15819 8.28939 3.39152C7.09059 5.24152 7.807 7.55406 9.88347 8.63323C10.5512 9.09573 11.2663 9.24993 11.9861 9.24993H12.3423H17.4301H19.5668H24.6528H25.0089C25.7289 9.24993 26.4612 9.09573 27.1287 8.63323C29.2053 7.55406 29.9052 5.24152 28.7058 3.39152C27.508 1.54152 24.864 0.924819 22.7874 2.00399C22.1198 2.31232 21.5957 2.77486 21.2287 3.39152H21.1948C21.1455 3.54569 21.1023 3.5458 21.0592 3.69997L18.4985 7.55414L15.9377 3.69997C15.8946 3.5458 15.8514 3.54569 15.8021 3.39152H15.7682C15.4003 2.77486 14.8923 2.31232 14.2245 2.00399C13.5756 1.69565 12.8555 1.5416 12.1557 1.5416ZM11.9014 3.39152C12.3184 3.39152 12.7499 3.5458 13.1393 3.69997C13.2699 3.69997 13.3874 3.8541 13.4953 3.8541C13.5713 4.00827 13.6343 4.00819 13.6988 4.16236H13.7497C13.7843 4.16236 13.8206 4.31649 13.8514 4.31649H13.9023H13.9192C13.9439 4.47065 13.9825 4.4708 14.004 4.4708L15.8021 7.24569H12.2066H12.0031H11.9183H11.7487H11.6639C11.5653 7.24569 11.4726 7.24573 11.3756 7.09156C11.2378 7.09156 11.0994 7.0916 10.9686 6.93743C10.7092 6.93743 10.4773 6.62902 10.3073 6.47486C9.79744 5.85819 9.72206 5.08732 10.1716 4.31649C10.5462 3.85399 11.2062 3.39152 11.9014 3.39152ZM25.1107 3.39152C25.806 3.39152 26.4658 3.85399 26.8404 4.31649C27.2906 5.08732 27.1981 5.85819 26.6878 6.47486C26.5182 6.62902 26.3039 6.93743 26.0434 6.93743C25.9139 7.0916 25.7751 7.09156 25.6364 7.09156C25.5408 7.24573 25.4298 7.24569 25.3311 7.24569H25.2463H25.0767H24.992H24.7885H21.1948L22.9909 4.4708C23.0125 4.4708 23.051 4.47065 23.0757 4.31649H23.0926C23.0895 4.31649 23.0972 4.31649 23.0926 4.31649H23.1435C23.1743 4.31649 23.2113 4.16236 23.2452 4.16236H23.2961C23.3609 4.00819 23.441 4.00827 23.5166 3.8541C23.626 3.8541 23.7432 3.69997 23.8727 3.69997C24.2627 3.5458 24.6944 3.39152 25.1107 3.39152Z" fill="#C0392B"/>
    <path d="M35.4583 15.4167H1.54166V16.9583H35.4583V15.4167Z" fill="#F39C12"/>
    <path d="M23.125 15.4167H13.875V16.9583H23.125V15.4167Z" fill="#C0392B"/>
    <path d="M23.125 33.9167H13.875V35.4583H23.125V33.9167Z" fill="#C0392B"/>
</svg>
