<svg width="24" height="24" viewBox="0 0 24 24" fill="black" xmlns="http://www.w3.org/2000/svg">
    <path d="M3.74998 6.30278C3.74998 4.61696 5.11612 3.25 6.80231 3.25H17.1973C18.8833 3.25 20.25 4.61681 20.25 6.30278C20.25 6.60933 20.3407 6.90903 20.5108 7.1641L21.5329 8.69737C22.0689 9.50129 22.0047 10.5635 21.376 11.2971C20.0701 12.8206 17.8923 13.1189 16.25 12.1379V10.5C16.25 10.0858 15.9142 9.75 15.5 9.75C15.0858 9.75 14.75 10.0858 14.75 10.5V11.894C13.0232 12.7617 10.9767 12.7617 9.24998 11.894V10.5C9.24998 10.0858 8.91419 9.75 8.49998 9.75C8.08576 9.75 7.74998 10.0858 7.74998 10.5V12.1379C6.10762 13.1189 3.92985 12.8206 2.62399 11.2971C1.99521 10.5635 1.93107 9.50129 2.46701 8.69737L3.48919 7.1641C3.65924 6.90903 3.74998 6.60933 3.74998 6.30278Z"/>
    <path fill-rule="evenodd" clip-rule="evenodd"
          d="M8.69585 13.0146C7.22508 14.0378 5.35909 14.2211 3.75 13.5895V14.0549C3.74998 15.4225 3.74996 16.5248 3.86652 17.3917C3.98754 18.2919 4.24643 19.0497 4.84835 19.6516C5.45027 20.2536 6.20814 20.5125 7.10825 20.6335C7.9752 20.75 9.07752 20.75 10.445 20.75H13.5549C14.9224 20.75 16.0248 20.75 16.8917 20.6335C17.7918 20.5125 18.5497 20.2536 19.1516 19.6516C19.7535 19.0497 20.0124 18.2919 20.1335 17.3917C20.25 16.5248 20.25 15.4225 20.25 14.0549V13.5895C18.6409 14.2211 16.7749 14.0378 15.3041 13.0146C13.2289 14.0548 10.7711 14.0548 8.69585 13.0146ZM8 16.25C7.58578 16.25 7.25 16.5858 7.25 17C7.25 17.4142 7.58578 17.75 8 17.75H11C11.4142 17.75 11.75 17.4142 11.75 17C11.75 16.5858 11.4142 16.25 11 16.25H8Z"
    />
</svg>
