<svg width="22" height="22" viewBox="0 0 22 22" fill="balck" xmlns="http://www.w3.org/2000/svg">
    <path d="M19.8447 18.2188C18.5359 15.956 16.5189 14.3335 14.1651 13.5644C15.3294 12.8713 16.234 11.8151 16.74 10.5581C17.2459 9.30111 17.3253 7.91279 16.9659 6.60633C16.6064 5.29987 15.8281 4.14751 14.7503 3.32624C13.6726 2.50496 12.355 2.06017 11 2.06017C9.64502 2.06017 8.32747 2.50496 7.24973 3.32624C6.17198 4.14751 5.39362 5.29987 5.03419 6.60633C4.67475 7.91279 4.75411 9.30111 5.26007 10.5581C5.76604 11.8151 6.67063 12.8713 7.83494 13.5644C5.48111 14.3327 3.46416 15.9552 2.15533 18.2188C2.10733 18.297 2.0755 18.3841 2.0617 18.4749C2.0479 18.5656 2.05243 18.6582 2.075 18.7472C2.09757 18.8362 2.13774 18.9198 2.19314 18.993C2.24853 19.0662 2.31803 19.1276 2.39752 19.1735C2.47702 19.2194 2.56491 19.249 2.65601 19.2604C2.74711 19.2718 2.83956 19.2648 2.92793 19.2399C3.01629 19.215 3.09877 19.1726 3.1705 19.1153C3.24223 19.058 3.30176 18.9869 3.34557 18.9063C4.96463 16.1081 7.82635 14.4375 11 14.4375C14.1737 14.4375 17.0354 16.1081 18.6545 18.9063C18.6983 18.9869 18.7578 19.058 18.8295 19.1153C18.9013 19.1726 18.9837 19.215 19.0721 19.2399C19.1605 19.2648 19.2529 19.2718 19.344 19.2604C19.4351 19.249 19.523 19.2194 19.6025 19.1735C19.682 19.1276 19.7515 19.0662 19.8069 18.993C19.8623 18.9198 19.9025 18.8362 19.925 18.7472C19.9476 18.6582 19.9521 18.5656 19.9383 18.4749C19.9245 18.3841 19.8927 18.297 19.8447 18.2188ZM6.18752 8.25C6.18752 7.29818 6.46977 6.36773 6.99857 5.57632C7.52738 4.78491 8.27899 4.16808 9.15835 3.80383C10.0377 3.43959 11.0054 3.34428 11.9389 3.52997C12.8724 3.71567 13.7299 4.17401 14.403 4.84705C15.076 5.52009 15.5344 6.3776 15.72 7.31113C15.9057 8.24467 15.8104 9.2123 15.4462 10.0917C15.0819 10.971 14.4651 11.7226 13.6737 12.2515C12.8823 12.7803 11.9518 13.0625 11 13.0625C9.72408 13.0611 8.5008 12.5537 7.59858 11.6514C6.69635 10.7492 6.18888 9.52594 6.18752 8.25Z"/>
</svg>
