<svg width="21" height="20" viewBox="0 0 21 20" fill="black" xmlns="http://www.w3.org/2000/svg">
    <path d="M15.5105 3.20556L14.5518 2.4781C14.0664 3.04735 13.2343 3.14905 12.6314 2.69159C12.0284 2.23395 11.8698 1.38034 12.2454 0.727643L11.2866 0C10.5884 0.700004 9.48637 0.798335 8.67624 0.18355L6.23837 3.64282C6.26978 3.59818 6.31588 3.57107 6.36471 3.56327C6.41354 3.5553 6.46544 3.56664 6.50863 3.59942L6.63054 3.6919C6.71676 3.75728 6.73554 3.88289 6.67254 3.97254C6.60954 4.06201 6.48849 4.0815 6.40227 4.01612L6.2802 3.92346C6.19398 3.85809 6.1752 3.73247 6.2382 3.64282L0 12.4952C0.810122 13.11 1.05359 14.2299 0.622488 15.132L1.58115 15.8595C2.06654 15.2906 2.89868 15.1886 3.50154 15.646C3.63146 15.7445 3.74073 15.8616 3.82849 15.991C3.83395 15.874 3.82098 15.7544 3.78734 15.6363C3.63641 15.1063 3.12934 14.7867 2.60776 14.893L2.24171 14.9678L2.13602 14.5964L1.79951 13.4145L1.70185 13.0714L2.01105 12.9131C2.71976 12.5503 3.07095 11.7149 2.84678 10.9267L2.73085 10.5192L3.12371 10.3987L11.4498 7.84639L11.3876 7.79909C11.3012 7.73353 11.2826 7.6081 11.3456 7.51862C11.377 7.47398 11.4231 7.44652 11.472 7.43872C11.521 7.43092 11.5727 7.44209 11.6159 7.47504L11.7378 7.5677C11.7907 7.60792 11.8182 7.67046 11.8167 7.73371L13.2587 7.29167L15.6216 6.56739L16.1326 5.84223C15.3225 5.22744 15.0789 4.10772 15.5101 3.20539L15.5105 3.20556ZM7.31107 4.4571C7.24807 4.54657 7.1272 4.56606 7.04098 4.50051L6.9189 4.40785C6.83268 4.34247 6.8139 4.21686 6.8769 4.12721C6.90832 4.08256 6.95441 4.05545 7.00324 4.04766C7.05207 4.03969 7.10398 4.05103 7.14717 4.08362L7.26941 4.17646C7.35563 4.24184 7.37424 4.36745 7.31124 4.45692L7.31107 4.4571ZM7.94961 4.94149C7.88661 5.03096 7.76556 5.05045 7.67917 4.98507L7.5571 4.89241C7.47088 4.82704 7.4521 4.7016 7.5151 4.61195C7.54651 4.5673 7.59278 4.53984 7.64144 4.53222C7.69027 4.52425 7.74217 4.53577 7.78537 4.56837L7.90744 4.66103C7.99366 4.7264 8.01244 4.85202 7.94944 4.94149H7.94961ZM8.5878 5.42605C8.52481 5.51552 8.40393 5.53501 8.31754 5.46964L8.19563 5.37698C8.10942 5.3116 8.09063 5.18616 8.15363 5.09651C8.18505 5.05187 8.23115 5.02458 8.27998 5.01679C8.3288 5.00881 8.38071 5.02033 8.4239 5.05293L8.54598 5.14559C8.63237 5.21114 8.65098 5.33658 8.58798 5.42605H8.5878ZM9.22634 5.91062C9.16334 6.00009 9.04229 6.01958 8.95607 5.9542L8.834 5.86154C8.74778 5.79616 8.729 5.67055 8.792 5.58108C8.82359 5.53625 8.86968 5.50915 8.91851 5.50135C8.96734 5.49338 9.01924 5.50489 9.06227 5.53767L9.18434 5.63033C9.27056 5.69571 9.28934 5.82132 9.22634 5.91079V5.91062ZM9.86471 6.395C9.80171 6.48448 9.68066 6.50396 9.59444 6.43859L9.47237 6.34593C9.38615 6.28055 9.36737 6.15494 9.43037 6.06546C9.46195 6.02064 9.50805 5.99353 9.55688 5.98574C9.60571 5.97777 9.65761 5.98928 9.70063 6.02206L9.82271 6.11472C9.90893 6.18009 9.92771 6.30571 9.86471 6.39518V6.395ZM10.5031 6.87957C10.4401 6.96904 10.319 6.98853 10.2328 6.92315L10.1107 6.83049C10.0245 6.76511 10.0059 6.63932 10.0689 6.55003C10.1003 6.5052 10.1464 6.4781 10.1952 6.47012C10.2442 6.46233 10.296 6.47367 10.3392 6.50644L10.4612 6.59911C10.5475 6.66448 10.5662 6.7901 10.5032 6.87957H10.5031ZM11.1414 7.36395C11.0784 7.45343 10.9574 7.47291 10.8712 7.40754L10.7491 7.31488C10.6629 7.2495 10.6441 7.12389 10.7071 7.03442C10.7387 6.98959 10.7848 6.96231 10.8334 6.95451C10.8824 6.94672 10.9342 6.95805 10.9774 6.99083L11.0994 7.08349C11.1857 7.14887 11.2044 7.27448 11.1414 7.36395Z"
    />
    <path d="M13.6531 9.02123L13.531 8.92857C13.5296 8.92751 13.5281 8.92645 13.5267 8.92538C13.5544 8.97871 13.6037 9.01503 13.6594 9.02637C13.6573 9.0246 13.6551 9.02283 13.6531 9.02106V9.02123Z"
    />
    <path d="M17.3356 6.4852L15.2236 7.13258L13.3748 7.69935C13.426 7.68376 13.4786 7.69103 13.5218 7.71565C13.5653 7.7401 13.5998 7.78192 13.615 7.83507L13.6579 7.98549C13.686 8.08453 13.637 8.18835 13.5474 8.22733C13.5409 8.23016 13.5341 8.23264 13.5273 8.23477C13.4248 8.26613 13.3173 8.20553 13.2869 8.09923L13.2442 7.94864C13.2158 7.8496 13.2648 7.74595 13.3545 7.70697C13.3611 7.70414 13.3678 7.70148 13.3748 7.69935L12.3323 8.01897L11.9473 8.13697L3.23965 10.8064C3.52392 11.8055 3.06277 12.8487 2.19238 13.2944L2.52889 14.4763C3.2475 14.3296 3.96833 14.7727 4.18004 15.5162C4.29033 15.9033 4.24185 16.3 4.07419 16.6309C3.92343 16.9287 3.67604 17.1736 3.3607 17.3107C3.35336 17.3139 3.34602 17.3169 3.3385 17.3201L3.67485 18.502C4.63897 18.3855 5.57236 19.0011 5.8568 20L15.9919 16.893C15.8895 16.9243 15.7819 16.8637 15.7517 16.7574L15.7089 16.607C15.6807 16.508 15.7295 16.4043 15.8193 16.3652C15.8258 16.3623 15.8325 16.36 15.8395 16.3577C15.8907 16.342 15.9433 16.3494 15.9866 16.3737C16.0302 16.3983 16.0647 16.4401 16.0797 16.4933L16.1226 16.6437C16.1507 16.7427 16.1019 16.8464 16.0121 16.8855C16.0056 16.8884 15.9989 16.8908 15.9919 16.893L19.9527 15.6788C19.6683 14.6801 20.1296 13.6367 21 13.191L20.6637 12.0091C19.9451 12.1557 19.2241 11.7126 19.0124 10.9692C18.803 10.2341 19.166 9.46469 19.8317 9.17466C19.839 9.17147 19.8466 9.16828 19.8541 9.16509L19.5176 7.98336C18.5534 8.09994 17.6199 7.48409 17.3356 6.4852ZM15.8557 15.7059L15.8987 15.8565C15.9269 15.9557 15.8779 16.0594 15.7883 16.0985C15.7818 16.1014 15.7749 16.1038 15.7681 16.106C15.6657 16.1373 15.5581 16.0767 15.5277 15.9704L15.4847 15.8198C15.4565 15.7208 15.5055 15.617 15.5952 15.578C15.6018 15.5752 15.6085 15.5727 15.6153 15.5706C15.6665 15.555 15.7191 15.5622 15.7625 15.5867C15.806 15.6111 15.8405 15.6528 15.8555 15.7059H15.8557ZM15.6317 14.9189L15.6744 15.0695C15.7026 15.1685 15.6537 15.2722 15.5641 15.3112C15.5574 15.314 15.5508 15.3165 15.5438 15.3186C15.4415 15.35 15.3339 15.2892 15.3036 15.1829L15.2607 15.0325C15.2325 14.9334 15.2814 14.8298 15.3712 14.7906C15.3778 14.7878 15.3845 14.7852 15.3913 14.7832C15.4425 14.7674 15.4949 14.7747 15.5385 14.7993C15.5818 14.8238 15.6163 14.8656 15.6317 14.9187V14.9189ZM15.4075 14.1319L15.4504 14.2823C15.4786 14.3814 15.4297 14.4852 15.3399 14.5244C15.3333 14.5272 15.3266 14.5297 15.3198 14.5318C15.2173 14.5632 15.1098 14.5024 15.0794 14.3963L15.0367 14.2457C15.0085 14.1464 15.0574 14.0428 15.147 14.0038C15.1537 14.001 15.1603 13.9985 15.1673 13.9964C15.2185 13.9808 15.2709 13.9879 15.3143 14.0127C15.358 14.0373 15.3923 14.0788 15.4075 14.1321V14.1319ZM15.1835 13.3447L15.2264 13.4952C15.2546 13.5942 15.2056 13.698 15.1159 13.737C15.1093 13.7398 15.1026 13.7423 15.0958 13.7444C14.9933 13.7758 14.8858 13.7152 14.8554 13.6089L14.8125 13.4585C14.7844 13.3595 14.8334 13.2556 14.923 13.2167C14.9297 13.2138 14.9363 13.2112 14.9431 13.2092C14.9944 13.1934 15.0469 13.2007 15.0903 13.2252C15.1338 13.2498 15.1683 13.2916 15.1835 13.3447ZM14.9594 12.5578L15.0022 12.7082C15.0304 12.8072 14.9816 12.9109 14.8917 12.95C14.8853 12.9528 14.8786 12.9553 14.8716 12.9576C14.7692 12.989 14.6616 12.9282 14.6314 12.8219L14.5885 12.6715C14.5604 12.5725 14.6092 12.4688 14.699 12.4297C14.7055 12.4268 14.7121 12.4245 14.7191 12.4222C14.7704 12.4066 14.8229 12.4139 14.8663 12.4382C14.9098 12.4628 14.9443 12.5046 14.9594 12.5578ZM14.7354 11.7704L14.7782 11.9208C14.8064 12.02 14.7574 12.1237 14.6677 12.1628C14.6611 12.1657 14.6544 12.1681 14.6476 12.1703C14.5452 12.2016 14.4376 12.141 14.4072 12.0347L14.3645 11.8841C14.3362 11.7851 14.3852 11.6815 14.4748 11.6425C14.4815 11.6396 14.4881 11.637 14.4951 11.6349C14.5462 11.6193 14.5989 11.6265 14.6421 11.6512C14.6857 11.6756 14.7202 11.7174 14.7352 11.7704H14.7354ZM14.5114 10.9834L14.554 11.134C14.5822 11.233 14.5334 11.3367 14.4437 11.3757C14.4371 11.3785 14.4304 11.3812 14.4234 11.3831C14.3212 11.4145 14.2136 11.3537 14.1832 11.2476L14.1404 11.0971C14.1122 10.9981 14.1612 10.8943 14.2508 10.8553C14.2575 10.8525 14.2641 10.85 14.271 10.8479C14.3222 10.8321 14.3748 10.8395 14.4181 10.864C14.4615 10.8884 14.496 10.9303 14.5114 10.9834ZM14.2872 10.1962L14.33 10.3467C14.3582 10.4459 14.3094 10.5495 14.2196 10.5887C14.2131 10.5915 14.2064 10.594 14.1994 10.5961C14.097 10.6275 13.9894 10.5671 13.9592 10.4606L13.9165 10.31C13.8884 10.2109 13.9372 10.1071 14.027 10.068C14.0335 10.0651 14.0401 10.0628 14.0471 10.0605C14.0984 10.0449 14.1509 10.0522 14.1943 10.0766C14.2378 10.1013 14.2722 10.1429 14.2874 10.1961L14.2872 10.1962ZM14.0632 9.40924L14.106 9.55966C14.1342 9.65869 14.0852 9.76252 13.9956 9.80149C13.9889 9.80433 13.9823 9.80681 13.9754 9.80894C13.873 9.84029 13.7654 9.7797 13.735 9.6734L13.6922 9.52298C13.664 9.42394 13.713 9.32012 13.8027 9.28114C13.8093 9.27831 13.816 9.27565 13.8228 9.2737C13.874 9.25793 13.9266 9.2652 13.97 9.28965C14.0135 9.31427 14.0482 9.35609 14.0632 9.40924ZM13.8392 8.62189L13.882 8.77248C13.9102 8.87152 13.8612 8.97499 13.7716 9.01414C13.7649 9.01698 13.7583 9.01964 13.7513 9.02176C13.7204 9.03115 13.6891 9.03222 13.6594 9.02619C13.6037 9.01485 13.5542 8.97853 13.5267 8.9252C13.5204 8.91316 13.5151 8.90005 13.5112 8.88623L13.4682 8.73563C13.44 8.63641 13.4888 8.53277 13.5787 8.49361C13.5851 8.49078 13.592 8.4883 13.5988 8.48617C13.65 8.47058 13.7026 8.47785 13.746 8.50247C13.7893 8.52692 13.8238 8.56856 13.839 8.62171L13.8392 8.62189Z"
    />
</svg>
